<?xml version="1.0" encoding="UTF-8"?>
<!DOCTYPE svg PUBLIC "-//W3C//DTD SVG 1.1//EN" "http://www.w3.org/Graphics/SVG/1.1/DTD/svg11.dtd">
<svg version="1.1" xmlns="http://www.w3.org/2000/svg" xmlns:xlink="http://www.w3.org/1999/xlink" x="0" y="0" width="232.09" height="51.024" viewBox="0, 0, 232.09, 51.024">
  <g id="Layer_1" transform="translate(-344.972, -402.188)">
    <path d="M370.256,449.26 C358.327,449.26 348.656,439.59 348.656,427.66 C348.656,415.731 358.327,406.06 370.256,406.06 C382.186,406.06 391.856,415.731 391.856,427.66 C391.856,439.59 382.186,449.26 370.256,449.26 z" fill="#515151"/>
    <g>
      <path d="M409.797,414.534 L412.898,415.471 Q412.586,416.776 411.914,417.651 Q411.242,418.526 410.246,418.971 Q409.25,419.417 407.711,419.417 Q405.844,419.417 404.66,418.874 Q403.477,418.331 402.617,416.964 Q401.758,415.596 401.758,413.464 Q401.758,410.62 403.27,409.093 Q404.781,407.565 407.547,407.565 Q409.711,407.565 410.949,408.44 Q412.188,409.315 412.789,411.128 L409.664,411.823 Q409.5,411.3 409.32,411.057 Q409.023,410.651 408.594,410.432 Q408.164,410.214 407.633,410.214 Q406.43,410.214 405.789,411.182 Q405.305,411.901 405.305,413.44 Q405.305,415.346 405.883,416.053 Q406.461,416.761 407.508,416.761 Q408.523,416.761 409.043,416.19 Q409.562,415.62 409.797,414.534 z" fill="#FFFFFF"/>
      <path d="M414.516,407.761 L417.703,407.761 L417.703,419.214 L414.516,419.214 z" fill="#FFFFFF"/>
      <path d="M428.477,419.214 L425.508,419.214 L425.508,417.87 Q424.844,418.698 424.168,419.05 Q423.492,419.401 422.508,419.401 Q421.195,419.401 420.449,418.616 Q419.703,417.831 419.703,416.198 L419.703,410.917 L422.898,410.917 L422.898,415.479 Q422.898,416.261 423.188,416.589 Q423.477,416.917 424,416.917 Q424.57,416.917 424.934,416.479 Q425.297,416.042 425.297,414.909 L425.297,410.917 L428.477,410.917 z" fill="#FFFFFF"/>
      <path d="M404.617,430.565 L406.602,430.565 Q405.578,432.831 405.125,434.753 Q404.742,436.386 404.742,438.237 Q404.742,441.807 406.602,445.581 L404.617,445.581 Q403.102,443.432 402.488,441.694 Q401.875,439.956 401.875,438.05 Q401.875,436.073 402.52,434.292 Q403.164,432.511 404.617,430.565 z" fill="#FFFFFF"/>
      <path d="M416.023,437.534 L419.125,438.471 Q418.812,439.776 418.141,440.651 Q417.469,441.526 416.473,441.971 Q415.477,442.417 413.938,442.417 Q412.07,442.417 410.887,441.874 Q409.703,441.331 408.844,439.964 Q407.984,438.596 407.984,436.464 Q407.984,433.62 409.496,432.093 Q411.008,430.565 413.773,430.565 Q415.938,430.565 417.176,431.44 Q418.414,432.315 419.016,434.128 L415.891,434.823 Q415.727,434.3 415.547,434.057 Q415.25,433.651 414.82,433.432 Q414.391,433.214 413.859,433.214 Q412.656,433.214 412.016,434.182 Q411.531,434.901 411.531,436.44 Q411.531,438.346 412.109,439.053 Q412.688,439.761 413.734,439.761 Q414.75,439.761 415.27,439.19 Q415.789,438.62 416.023,437.534 z" fill="#FFFFFF"/>
      <path d="M420.242,438.089 Q420.242,436.19 421.523,434.96 Q422.805,433.729 424.984,433.729 Q427.477,433.729 428.75,435.175 Q429.773,436.339 429.773,438.042 Q429.773,439.956 428.504,441.178 Q427.234,442.401 424.992,442.401 Q422.992,442.401 421.758,441.386 Q420.242,440.128 420.242,438.089 z M423.43,438.081 Q423.43,439.19 423.879,439.721 Q424.328,440.253 425.008,440.253 Q425.695,440.253 426.137,439.729 Q426.578,439.206 426.578,438.05 Q426.578,436.971 426.133,436.444 Q425.688,435.917 425.031,435.917 Q424.336,435.917 423.883,436.452 Q423.43,436.987 423.43,438.081 z" fill="#FFFFFF"/>
      <path d="M431.328,433.917 L434.297,433.917 L434.297,435.128 Q434.938,434.37 435.59,434.05 Q436.242,433.729 437.164,433.729 Q438.156,433.729 438.734,434.081 Q439.312,434.432 439.68,435.128 Q440.43,434.315 441.047,434.022 Q441.664,433.729 442.57,433.729 Q443.906,433.729 444.656,434.522 Q445.406,435.315 445.406,437.003 L445.406,442.214 L442.219,442.214 L442.219,437.487 Q442.219,436.925 442,436.651 Q441.68,436.221 441.203,436.221 Q440.641,436.221 440.297,436.628 Q439.953,437.034 439.953,437.932 L439.953,442.214 L436.766,442.214 L436.766,437.643 Q436.766,437.096 436.703,436.901 Q436.602,436.589 436.352,436.397 Q436.102,436.206 435.766,436.206 Q435.219,436.206 434.867,436.62 Q434.516,437.034 434.516,437.979 L434.516,442.214 L431.328,442.214 z" fill="#FFFFFF"/>
      <path d="M447.328,433.917 L450.297,433.917 L450.297,435.128 Q450.938,434.37 451.59,434.05 Q452.242,433.729 453.164,433.729 Q454.156,433.729 454.734,434.081 Q455.312,434.432 455.68,435.128 Q456.43,434.315 457.047,434.022 Q457.664,433.729 458.57,433.729 Q459.906,433.729 460.656,434.522 Q461.406,435.315 461.406,437.003 L461.406,442.214 L458.219,442.214 L458.219,437.487 Q458.219,436.925 458,436.651 Q457.68,436.221 457.203,436.221 Q456.641,436.221 456.297,436.628 Q455.953,437.034 455.953,437.932 L455.953,442.214 L452.766,442.214 L452.766,437.643 Q452.766,437.096 452.703,436.901 Q452.602,436.589 452.352,436.397 Q452.102,436.206 451.766,436.206 Q451.219,436.206 450.867,436.62 Q450.516,437.034 450.516,437.979 L450.516,442.214 L447.328,442.214 z" fill="#FFFFFF"/>
      <path d="M466.203,436.604 L463.164,436.284 Q463.336,435.487 463.66,435.03 Q463.984,434.573 464.594,434.237 Q465.031,433.995 465.797,433.862 Q466.562,433.729 467.453,433.729 Q468.883,433.729 469.75,433.889 Q470.617,434.05 471.195,434.557 Q471.602,434.909 471.836,435.553 Q472.07,436.198 472.07,436.784 L472.07,440.448 Q472.07,441.034 472.145,441.366 Q472.219,441.698 472.469,442.214 L469.484,442.214 Q469.305,441.893 469.25,441.725 Q469.195,441.557 469.141,441.198 Q468.516,441.8 467.898,442.057 Q467.055,442.401 465.938,442.401 Q464.453,442.401 463.684,441.714 Q462.914,441.026 462.914,440.018 Q462.914,439.073 463.469,438.464 Q464.023,437.854 465.516,437.557 Q467.305,437.198 467.836,437.053 Q468.367,436.909 468.961,436.675 Q468.961,436.089 468.719,435.854 Q468.477,435.62 467.867,435.62 Q467.086,435.62 466.695,435.87 Q466.391,436.065 466.203,436.604 z M468.961,438.276 Q468.305,438.511 467.594,438.69 Q466.625,438.948 466.367,439.198 Q466.102,439.456 466.102,439.784 Q466.102,440.159 466.363,440.397 Q466.625,440.636 467.133,440.636 Q467.664,440.636 468.121,440.378 Q468.578,440.12 468.77,439.749 Q468.961,439.378 468.961,438.784 z" fill="#FFFFFF"/>
      <path d="M473.977,433.917 L476.938,433.917 L476.938,435.268 Q477.602,434.44 478.281,434.085 Q478.961,433.729 479.938,433.729 Q481.258,433.729 482.004,434.514 Q482.75,435.3 482.75,436.94 L482.75,442.214 L479.555,442.214 L479.555,437.651 Q479.555,436.87 479.266,436.546 Q478.977,436.221 478.453,436.221 Q477.875,436.221 477.516,436.659 Q477.156,437.096 477.156,438.229 L477.156,442.214 L473.977,442.214 z" fill="#FFFFFF"/>
      <path d="M493.383,430.761 L493.383,442.214 L490.406,442.214 L490.406,440.987 Q489.781,441.768 489.266,442.042 Q488.578,442.401 487.734,442.401 Q486.039,442.401 485.145,441.112 Q484.25,439.823 484.25,437.979 Q484.25,435.917 485.238,434.823 Q486.227,433.729 487.75,433.729 Q488.492,433.729 489.098,433.979 Q489.703,434.229 490.172,434.729 L490.172,430.761 z M490.195,438.042 Q490.195,437.065 489.781,436.585 Q489.367,436.104 488.734,436.104 Q488.18,436.104 487.805,436.565 Q487.43,437.026 487.43,438.112 Q487.43,439.128 487.816,439.6 Q488.203,440.073 488.773,440.073 Q489.383,440.073 489.789,439.596 Q490.195,439.12 490.195,438.042 z" fill="#FFFFFF"/>
      <path d="M500.867,430.761 L504.406,430.761 L504.406,439.393 L509.93,439.393 L509.93,442.214 L500.867,442.214 z" fill="#FFFFFF"/>
      <path d="M510.938,438.089 Q510.938,436.19 512.219,434.96 Q513.5,433.729 515.68,433.729 Q518.172,433.729 519.445,435.175 Q520.469,436.339 520.469,438.042 Q520.469,439.956 519.199,441.178 Q517.93,442.401 515.688,442.401 Q513.688,442.401 512.453,441.386 Q510.938,440.128 510.938,438.089 z M514.125,438.081 Q514.125,439.19 514.574,439.721 Q515.023,440.253 515.703,440.253 Q516.391,440.253 516.832,439.729 Q517.273,439.206 517.273,438.05 Q517.273,436.971 516.828,436.444 Q516.383,435.917 515.727,435.917 Q515.031,435.917 514.578,436.452 Q514.125,436.987 514.125,438.081 z" fill="#FFFFFF"/>
      <path d="M521.609,438.089 Q521.609,436.19 522.891,434.96 Q524.172,433.729 526.352,433.729 Q528.844,433.729 530.117,435.175 Q531.141,436.339 531.141,438.042 Q531.141,439.956 529.871,441.178 Q528.602,442.401 526.359,442.401 Q524.359,442.401 523.125,441.386 Q521.609,440.128 521.609,438.089 z M524.797,438.081 Q524.797,439.19 525.246,439.721 Q525.695,440.253 526.375,440.253 Q527.062,440.253 527.504,439.729 Q527.945,439.206 527.945,438.05 Q527.945,436.971 527.5,436.444 Q527.055,435.917 526.398,435.917 Q525.703,435.917 525.25,436.452 Q524.797,436.987 524.797,438.081 z" fill="#FFFFFF"/>
      <path d="M532.672,430.761 L535.922,430.761 L535.922,436.667 L538.297,433.917 L542.211,433.917 L539.234,436.823 L542.383,442.214 L538.797,442.214 L537.117,438.886 L535.922,440.057 L535.922,442.214 L532.672,442.214 z" fill="#FFFFFF"/>
      <path d="M542.734,436.807 L547.359,436.807 L547.359,439.268 L542.734,439.268 z" fill="#FFFFFF"/>
      <path d="M556.336,430.761 L559.867,430.761 L559.867,437.589 Q559.867,438.604 559.551,439.507 Q559.234,440.409 558.559,441.085 Q557.883,441.761 557.141,442.034 Q556.109,442.417 554.664,442.417 Q553.828,442.417 552.84,442.3 Q551.852,442.182 551.188,441.835 Q550.523,441.487 549.973,440.846 Q549.422,440.206 549.219,439.526 Q548.891,438.432 548.891,437.589 L548.891,430.761 L552.422,430.761 L552.422,437.753 Q552.422,438.69 552.941,439.218 Q553.461,439.745 554.383,439.745 Q555.297,439.745 555.816,439.225 Q556.336,438.706 556.336,437.753 z" fill="#FFFFFF"/>
      <path d="M562.016,445.37 L562.016,433.917 L564.992,433.917 L564.992,435.143 Q565.609,434.37 566.125,434.096 Q566.82,433.729 567.664,433.729 Q569.328,433.729 570.238,435.003 Q571.148,436.276 571.148,438.151 Q571.148,440.221 570.156,441.311 Q569.164,442.401 567.648,442.401 Q566.914,442.401 566.309,442.151 Q565.703,441.901 565.227,441.409 L565.227,445.37 z M565.203,438.089 Q565.203,439.073 565.617,439.55 Q566.031,440.026 566.664,440.026 Q567.219,440.026 567.594,439.569 Q567.969,439.112 567.969,438.018 Q567.969,437.011 567.578,436.538 Q567.188,436.065 566.625,436.065 Q566.016,436.065 565.609,436.542 Q565.203,437.018 565.203,438.089 z" fill="#FFFFFF"/>
      <path d="M574.32,430.565 L572.336,430.565 Q573.359,432.831 573.812,434.753 Q574.195,436.386 574.195,438.237 Q574.195,441.807 572.336,445.581 L574.32,445.581 Q575.836,443.432 576.449,441.694 Q577.062,439.956 577.062,438.05 Q577.062,436.073 576.418,434.292 Q575.773,432.511 574.32,430.565 z" fill="#FFFFFF"/>
    </g>
    <path d="M352.456,409.662 C342.848,419.213 342.491,434.574 351.388,444.539 L351.624,444.775 C350.674,446.851 349.015,449.402 346.404,450.707 C345.514,451.121 345.751,452.426 346.701,452.604 C349.548,453.079 353.7,452.544 357.556,449.639 L357.616,449.699 C367.403,455.452 380.155,454.147 388.519,445.725 C398.485,435.76 398.485,419.627 388.519,409.662 C378.554,399.697 362.419,399.697 352.456,409.662 z M370.486,447.148 C359.749,447.148 351.031,438.429 351.031,427.692 C351.031,416.955 359.749,408.237 370.486,408.237 C381.223,408.237 389.942,416.955 389.942,427.692 C389.942,438.429 381.223,447.148 370.486,447.148 z M375.885,437.479 C375.824,437.776 375.648,438.072 375.41,438.251 C374.223,439.437 372.74,440.208 371.021,440.208 C370.192,440.208 369.42,440.208 368.589,440.09 C367.284,439.912 365.563,438.25 365.801,436.531 C365.98,435.345 366.158,434.159 366.334,432.973 C366.691,430.897 367.045,428.821 367.402,426.745 C367.402,426.626 367.463,426.508 367.463,426.33 C367.463,425.44 367.166,425.144 366.337,425.025 C365.98,424.965 365.565,424.965 365.268,424.847 C364.854,424.669 364.675,424.372 364.675,424.018 C364.736,423.661 364.972,423.424 365.387,423.364 C365.623,423.304 365.862,423.304 366.158,423.304 L369.184,423.304 L372.386,423.304 C373.158,423.304 373.633,423.661 373.633,424.43 C373.633,425.083 373.514,425.734 373.396,426.328 C372.982,428.7 372.507,431.073 372.092,433.385 C371.974,434.156 371.795,434.928 371.677,435.757 C371.617,436.114 371.677,436.529 371.795,436.883 C371.913,437.358 372.27,437.655 372.803,437.595 C373.218,437.534 373.633,437.416 374.05,437.238 C374.346,437.12 374.643,436.881 375,436.763 C375.588,436.649 376.003,436.946 375.885,437.479 z M367.817,418.438 C367.817,416.598 369.3,415.116 371.139,415.116 C372.979,415.116 374.401,416.598 374.401,418.496 C374.401,420.336 372.919,421.819 371.139,421.819 C369.3,421.821 367.817,420.278 367.817,418.438 z" fill="#FFFFFF" id="Layer_1"/>
  </g>
</svg>
