<?xml version="1.0" encoding="UTF-8"?>
<!DOCTYPE svg PUBLIC "-//W3C//DTD SVG 1.1//EN" "http://www.w3.org/Graphics/SVG/1.1/DTD/svg11.dtd">
<svg version="1.1" xmlns="http://www.w3.org/2000/svg" xmlns:xlink="http://www.w3.org/1999/xlink" x="0" y="0" width="301.82" height="93.754" viewBox="0, 0, 301.82, 93.754">
  <g id="Layer_1" transform="translate(-483.5, -395.246)">
    <g>
      <g id="Layer_1">
        <path d="M505.375,423.375 L486.625,423.375 C484.898,423.375 483.5,421.977 483.5,420.25 L483.5,417.125 C483.5,416.297 483.828,415.5 484.414,414.914 L503.164,396.164 C504.062,395.266 505.402,395 506.57,395.484 C507.742,395.973 508.5,397.113 508.5,398.375 L508.5,420.25 C508.5,421.977 507.102,423.375 505.375,423.375 z M491.043,417.125 L502.25,417.125 L502.25,405.918 z" fill="#4E5052"/>
        <path d="M489.75,476.5 L486.625,476.5 C484.898,476.5 483.5,475.102 483.5,473.375 L483.5,417.125 C483.5,415.398 484.898,414 486.625,414 C488.352,414 489.75,415.398 489.75,417.125 L502.25,417.125 L502.25,398.375 C502.25,396.648 503.648,395.25 505.375,395.25 L549.125,395.25 C550.852,395.25 552.25,396.648 552.25,398.375 L552.25,407.75 C552.25,409.477 550.852,410.875 549.125,410.875 C547.398,410.875 546,409.477 546,407.75 L546,401.5 L508.5,401.5 L508.5,420.25 C508.5,421.977 507.102,423.375 505.375,423.375 L489.75,423.375 L489.75,470.25 C491.477,470.25 492.875,471.648 492.875,473.375 C492.875,475.102 491.477,476.5 489.75,476.5 z" fill="#4E5052"/>
        <path d="M549.125,476.5 L536.625,476.5 C534.898,476.5 533.5,475.102 533.5,473.375 C533.5,471.648 534.898,470.25 536.625,470.25 L549.125,470.25 C550.852,470.25 552.25,471.648 552.25,473.375 C552.25,475.102 550.852,476.5 549.125,476.5 z" fill="#4E5052"/>
        <path d="M561.625,489 L524.125,489 C522.398,489 521,487.602 521,485.875 C521,484.148 522.398,482.75 524.125,482.75 L558.5,482.75 L558.5,467.125 C558.5,465.398 559.898,464 561.625,464 C563.352,464 564.75,465.398 564.75,467.125 L564.75,485.875 C564.75,487.602 563.352,489 561.625,489 z" fill="#4E5052"/>
        <path d="M561.625,414 L558.5,414 C556.773,414 555.375,412.602 555.375,410.875 C555.375,409.148 556.773,407.75 558.5,407.75 L561.625,407.75 C563.352,407.75 564.75,409.148 564.75,410.875 C564.75,412.602 563.352,414 561.625,414 z" fill="#4E5052"/>
        <path d="M546,464 C532.215,464 521,452.785 521,439 C521,425.215 532.215,414 546,414 C559.785,414 571,425.215 571,439 C571,452.785 559.785,464 546,464 z M546,420.25 C535.66,420.25 527.25,428.66 527.25,439 C527.25,449.34 535.66,457.75 546,457.75 C556.34,457.75 564.75,449.34 564.75,439 C564.75,428.66 556.34,420.25 546,420.25 z" fill="#4E5052"/>
        <path d="M533.5,442.125 C531.773,442.125 530.375,440.727 530.375,439 C530.375,430.383 537.383,423.375 546,423.375 C547.727,423.375 549.125,424.773 549.125,426.5 C549.125,428.227 547.727,429.625 546,429.625 C540.832,429.625 536.625,433.832 536.625,439 C536.625,440.727 535.227,442.125 533.5,442.125 z" fill="#4E5052"/>
        <path d="M507.945,489 C505.828,489 503.808,488.055 501.937,486.191 C498.179,482.43 498.179,477.941 501.937,474.183 L517.113,459.003 C520.852,455.269 525.387,455.277 529.121,459.003 C532.879,462.765 532.879,467.253 529.121,471.011 L513.945,486.187 C512.082,488.055 510.059,489 507.945,489 z M523.117,462.438 C522.734,462.438 522.156,462.797 521.531,463.422 L506.355,478.602 C505.05,479.907 505.05,480.47 506.355,481.774 C507.593,483.016 508.277,483.024 509.527,481.774 L524.703,466.594 C526.008,465.29 526.008,464.727 524.703,463.422 C524.078,462.793 523.504,462.438 523.117,462.438 z" fill="#4E5052"/>
      </g>
      <g>
        <g>
          <path d="M612.576,428.4 Q614.004,428.4 615.024,429.386 Q616.044,430.372 616.044,431.732 Q616.044,433.16 615.024,434.18 Q614.004,435.2 612.576,435.2 L603.736,435.2 L603.736,472.668 Q603.736,474.028 602.75,475.014 Q601.764,476 600.336,476 Q598.976,476 597.99,475.014 Q597.004,474.028 597.004,472.668 L597.004,435.2 L588.096,435.2 Q586.736,435.2 585.716,434.18 Q584.696,433.16 584.696,431.732 Q584.696,430.372 585.716,429.386 Q586.736,428.4 588.096,428.4 z" fill="#4E5052"/>
          <path d="M612.576,428.4 Q614.004,428.4 615.024,429.386 Q616.044,430.372 616.044,431.732 Q616.044,433.16 615.024,434.18 Q614.004,435.2 612.576,435.2 L603.736,435.2 L603.736,472.668 Q603.736,474.028 602.75,475.014 Q601.764,476 600.336,476 Q598.976,476 597.99,475.014 Q597.004,474.028 597.004,472.668 L597.004,435.2 L588.096,435.2 Q586.736,435.2 585.716,434.18 Q584.696,433.16 584.696,431.732 Q584.696,430.372 585.716,429.386 Q586.736,428.4 588.096,428.4 z" fill-opacity="0" stroke="#4E5052" stroke-width="1"/>
        </g>
        <g>
          <path d="M627.468,444.312 Q630.732,444.312 633.622,445.57 Q636.512,446.828 638.654,449.004 Q640.796,451.18 642.054,454.07 Q643.312,456.96 643.312,460.224 Q643.312,463.488 642.054,466.378 Q640.796,469.268 638.654,471.41 Q636.512,473.552 633.622,474.776 Q630.732,476 627.468,476 Q624.204,476 621.314,474.776 Q618.424,473.552 616.282,471.41 Q614.14,469.268 612.882,466.378 Q611.624,463.488 611.624,460.224 Q611.624,456.96 612.882,454.07 Q614.14,451.18 616.282,449.004 Q618.424,446.828 621.314,445.57 Q624.204,444.312 627.468,444.312 z M627.468,469.132 Q629.372,469.132 631.004,468.452 Q632.636,467.772 633.86,466.548 Q635.084,465.324 635.764,463.692 Q636.444,462.06 636.444,460.224 Q636.444,458.32 635.764,456.688 Q635.084,455.056 633.86,453.832 Q632.636,452.608 631.004,451.894 Q629.372,451.18 627.468,451.18 Q625.632,451.18 624,451.894 Q622.368,452.608 621.144,453.832 Q619.92,455.056 619.206,456.688 Q618.492,458.32 618.492,460.224 Q618.492,462.06 619.206,463.692 Q619.92,465.324 621.144,466.548 Q622.368,467.772 624,468.452 Q625.632,469.132 627.468,469.132 z" fill="#4E5052"/>
          <path d="M627.468,444.312 Q630.732,444.312 633.622,445.57 Q636.512,446.828 638.654,449.004 Q640.796,451.18 642.054,454.07 Q643.312,456.96 643.312,460.224 Q643.312,463.488 642.054,466.378 Q640.796,469.268 638.654,471.41 Q636.512,473.552 633.622,474.776 Q630.732,476 627.468,476 Q624.204,476 621.314,474.776 Q618.424,473.552 616.282,471.41 Q614.14,469.268 612.882,466.378 Q611.624,463.488 611.624,460.224 Q611.624,456.96 612.882,454.07 Q614.14,451.18 616.282,449.004 Q618.424,446.828 621.314,445.57 Q624.204,444.312 627.468,444.312 z M627.468,469.132 Q629.372,469.132 631.004,468.452 Q632.636,467.772 633.86,466.548 Q635.084,465.324 635.764,463.692 Q636.444,462.06 636.444,460.224 Q636.444,458.32 635.764,456.688 Q635.084,455.056 633.86,453.832 Q632.636,452.608 631.004,451.894 Q629.372,451.18 627.468,451.18 Q625.632,451.18 624,451.894 Q622.368,452.608 621.144,453.832 Q619.92,455.056 619.206,456.688 Q618.492,458.32 618.492,460.224 Q618.492,462.06 619.206,463.692 Q619.92,465.324 621.144,466.548 Q622.368,467.772 624,468.452 Q625.632,469.132 627.468,469.132 z" fill-opacity="0" stroke="#4E5052" stroke-width="1"/>
        </g>
        <g>
          <path d="M664.664,444.312 Q667.928,444.312 670.818,445.57 Q673.708,446.828 675.85,449.004 Q677.992,451.18 679.25,454.07 Q680.508,456.96 680.508,460.224 Q680.508,463.488 679.25,466.378 Q677.992,469.268 675.85,471.41 Q673.708,473.552 670.818,474.776 Q667.928,476 664.664,476 Q661.4,476 658.51,474.776 Q655.62,473.552 653.478,471.41 Q651.336,469.268 650.078,466.378 Q648.82,463.488 648.82,460.224 Q648.82,456.96 650.078,454.07 Q651.336,451.18 653.478,449.004 Q655.62,446.828 658.51,445.57 Q661.4,444.312 664.664,444.312 z M664.664,469.132 Q666.568,469.132 668.2,468.452 Q669.832,467.772 671.056,466.548 Q672.28,465.324 672.96,463.692 Q673.64,462.06 673.64,460.224 Q673.64,458.32 672.96,456.688 Q672.28,455.056 671.056,453.832 Q669.832,452.608 668.2,451.894 Q666.568,451.18 664.664,451.18 Q662.828,451.18 661.196,451.894 Q659.564,452.608 658.34,453.832 Q657.116,455.056 656.402,456.688 Q655.688,458.32 655.688,460.224 Q655.688,462.06 656.402,463.692 Q657.116,465.324 658.34,466.548 Q659.564,467.772 661.196,468.452 Q662.828,469.132 664.664,469.132 z" fill="#4E5052"/>
          <path d="M664.664,444.312 Q667.928,444.312 670.818,445.57 Q673.708,446.828 675.85,449.004 Q677.992,451.18 679.25,454.07 Q680.508,456.96 680.508,460.224 Q680.508,463.488 679.25,466.378 Q677.992,469.268 675.85,471.41 Q673.708,473.552 670.818,474.776 Q667.928,476 664.664,476 Q661.4,476 658.51,474.776 Q655.62,473.552 653.478,471.41 Q651.336,469.268 650.078,466.378 Q648.82,463.488 648.82,460.224 Q648.82,456.96 650.078,454.07 Q651.336,451.18 653.478,449.004 Q655.62,446.828 658.51,445.57 Q661.4,444.312 664.664,444.312 z M664.664,469.132 Q666.568,469.132 668.2,468.452 Q669.832,467.772 671.056,466.548 Q672.28,465.324 672.96,463.692 Q673.64,462.06 673.64,460.224 Q673.64,458.32 672.96,456.688 Q672.28,455.056 671.056,453.832 Q669.832,452.608 668.2,451.894 Q666.568,451.18 664.664,451.18 Q662.828,451.18 661.196,451.894 Q659.564,452.608 658.34,453.832 Q657.116,455.056 656.402,456.688 Q655.688,458.32 655.688,460.224 Q655.688,462.06 656.402,463.692 Q657.116,465.324 658.34,466.548 Q659.564,467.772 661.196,468.452 Q662.828,469.132 664.664,469.132 z" fill-opacity="0" stroke="#4E5052" stroke-width="1"/>
        </g>
        <g>
          <path d="M689.62,476 Q688.192,476 687.172,475.014 Q686.152,474.028 686.152,472.668 L686.152,431.732 Q686.152,430.372 687.172,429.386 Q688.192,428.4 689.62,428.4 Q690.98,428.4 691.966,429.386 Q692.952,430.372 692.952,431.732 L692.952,469.2 L707.912,469.2 Q709.34,469.2 710.36,470.22 Q711.38,471.24 711.38,472.668 Q711.38,474.028 710.36,475.014 Q709.34,476 707.912,476 z" fill="#4E5052"/>
          <path d="M689.62,476 Q688.192,476 687.172,475.014 Q686.152,474.028 686.152,472.668 L686.152,431.732 Q686.152,430.372 687.172,429.386 Q688.192,428.4 689.62,428.4 Q690.98,428.4 691.966,429.386 Q692.952,430.372 692.952,431.732 L692.952,469.2 L707.912,469.2 Q709.34,469.2 710.36,470.22 Q711.38,471.24 711.38,472.668 Q711.38,474.028 710.36,475.014 Q709.34,476 707.912,476 z" fill-opacity="0" stroke="#4E5052" stroke-width="1"/>
        </g>
        <g>
          <path d="M731.78,444.312 Q735.044,444.312 737.934,445.57 Q740.824,446.828 742.966,449.004 Q745.108,451.18 746.366,454.07 Q747.624,456.96 747.624,460.224 Q747.624,463.488 746.366,466.378 Q745.108,469.268 742.966,471.41 Q740.824,473.552 737.934,474.776 Q735.044,476 731.78,476 Q728.516,476 725.626,474.776 Q722.736,473.552 720.594,471.41 Q718.452,469.268 717.194,466.378 Q715.936,463.488 715.936,460.224 Q715.936,456.96 717.194,454.07 Q718.452,451.18 720.594,449.004 Q722.736,446.828 725.626,445.57 Q728.516,444.312 731.78,444.312 z M731.78,469.132 Q733.684,469.132 735.316,468.452 Q736.948,467.772 738.172,466.548 Q739.396,465.324 740.076,463.692 Q740.756,462.06 740.756,460.224 Q740.756,458.32 740.076,456.688 Q739.396,455.056 738.172,453.832 Q736.948,452.608 735.316,451.894 Q733.684,451.18 731.78,451.18 Q729.944,451.18 728.312,451.894 Q726.68,452.608 725.456,453.832 Q724.232,455.056 723.518,456.688 Q722.804,458.32 722.804,460.224 Q722.804,462.06 723.518,463.692 Q724.232,465.324 725.456,466.548 Q726.68,467.772 728.312,468.452 Q729.944,469.132 731.78,469.132 z" fill="#4E5052"/>
          <path d="M731.78,444.312 Q735.044,444.312 737.934,445.57 Q740.824,446.828 742.966,449.004 Q745.108,451.18 746.366,454.07 Q747.624,456.96 747.624,460.224 Q747.624,463.488 746.366,466.378 Q745.108,469.268 742.966,471.41 Q740.824,473.552 737.934,474.776 Q735.044,476 731.78,476 Q728.516,476 725.626,474.776 Q722.736,473.552 720.594,471.41 Q718.452,469.268 717.194,466.378 Q715.936,463.488 715.936,460.224 Q715.936,456.96 717.194,454.07 Q718.452,451.18 720.594,449.004 Q722.736,446.828 725.626,445.57 Q728.516,444.312 731.78,444.312 z M731.78,469.132 Q733.684,469.132 735.316,468.452 Q736.948,467.772 738.172,466.548 Q739.396,465.324 740.076,463.692 Q740.756,462.06 740.756,460.224 Q740.756,458.32 740.076,456.688 Q739.396,455.056 738.172,453.832 Q736.948,452.608 735.316,451.894 Q733.684,451.18 731.78,451.18 Q729.944,451.18 728.312,451.894 Q726.68,452.608 725.456,453.832 Q724.232,455.056 723.518,456.688 Q722.804,458.32 722.804,460.224 Q722.804,462.06 723.518,463.692 Q724.232,465.324 725.456,466.548 Q726.68,467.772 728.312,468.452 Q729.944,469.132 731.78,469.132 z" fill-opacity="0" stroke="#4E5052" stroke-width="1"/>
        </g>
        <g>
          <path d="M768.976,444.312 Q772.24,444.312 775.13,445.57 Q778.02,446.828 780.162,449.004 Q782.304,451.18 783.562,454.07 Q784.82,456.96 784.82,460.224 Q784.82,463.488 783.562,466.378 Q782.304,469.268 780.162,471.41 Q778.02,473.552 775.13,474.776 Q772.24,476 768.976,476 Q765.712,476 762.822,474.776 Q759.932,473.552 757.79,471.41 Q755.648,469.268 754.39,466.378 Q753.132,463.488 753.132,460.224 Q753.132,456.96 754.39,454.07 Q755.648,451.18 757.79,449.004 Q759.932,446.828 762.822,445.57 Q765.712,444.312 768.976,444.312 z M768.976,469.132 Q770.88,469.132 772.512,468.452 Q774.144,467.772 775.368,466.548 Q776.592,465.324 777.272,463.692 Q777.952,462.06 777.952,460.224 Q777.952,458.32 777.272,456.688 Q776.592,455.056 775.368,453.832 Q774.144,452.608 772.512,451.894 Q770.88,451.18 768.976,451.18 Q767.14,451.18 765.508,451.894 Q763.876,452.608 762.652,453.832 Q761.428,455.056 760.714,456.688 Q760,458.32 760,460.224 Q760,462.06 760.714,463.692 Q761.428,465.324 762.652,466.548 Q763.876,467.772 765.508,468.452 Q767.14,469.132 768.976,469.132 z" fill="#4E5052"/>
          <path d="M768.976,444.312 Q772.24,444.312 775.13,445.57 Q778.02,446.828 780.162,449.004 Q782.304,451.18 783.562,454.07 Q784.82,456.96 784.82,460.224 Q784.82,463.488 783.562,466.378 Q782.304,469.268 780.162,471.41 Q778.02,473.552 775.13,474.776 Q772.24,476 768.976,476 Q765.712,476 762.822,474.776 Q759.932,473.552 757.79,471.41 Q755.648,469.268 754.39,466.378 Q753.132,463.488 753.132,460.224 Q753.132,456.96 754.39,454.07 Q755.648,451.18 757.79,449.004 Q759.932,446.828 762.822,445.57 Q765.712,444.312 768.976,444.312 z M768.976,469.132 Q770.88,469.132 772.512,468.452 Q774.144,467.772 775.368,466.548 Q776.592,465.324 777.272,463.692 Q777.952,462.06 777.952,460.224 Q777.952,458.32 777.272,456.688 Q776.592,455.056 775.368,453.832 Q774.144,452.608 772.512,451.894 Q770.88,451.18 768.976,451.18 Q767.14,451.18 765.508,451.894 Q763.876,452.608 762.652,453.832 Q761.428,455.056 760.714,456.688 Q760,458.32 760,460.224 Q760,462.06 760.714,463.692 Q761.428,465.324 762.652,466.548 Q763.876,467.772 765.508,468.452 Q767.14,469.132 768.976,469.132 z" fill-opacity="0" stroke="#4E5052" stroke-width="1"/>
        </g>
      </g>
    </g>
  </g>
</svg>
